<svg width="158" height="27" viewBox="0 0 158 27" fill="none" xmlns="http://www.w3.org/2000/svg">
<path d="M0.728 1.648H5.656L17.24 17.616V1.648H22.008V26H17.528L5.624 9.456V26H0.728V1.648ZM38.1643 1.648V5.616H29.9083V12.176H38.1643V16.4H29.9083V22.032H38.1643V26H25.1083V1.648H38.1643ZM54.1055 1.648V5.616H49.2735V26H44.5055V5.616H39.7695V1.648H54.1055ZM54.5425 1.648H59.4065L64.2065 17.872L69.1665 1.648H72.3025L77.4865 18.128L82.4465 1.648H87.1185L79.4385 26H75.5985L70.7985 10.288L65.5825 26H61.6145L54.5425 1.648ZM92.3025 1.456H96.8465L105.871 26H101.135L99.1825 21.04H89.5825L87.6945 26H82.7985L92.3025 1.456ZM91.2145 16.848H97.7425L94.5745 7.76L91.2145 16.848ZM117.731 1.648V5.616H112.899V26H108.131V5.616H103.395V1.648H117.731ZM135.389 2.672V7.632C132.189 5.328 129.245 5.52 127.069 6.512C124.349 7.76 122.813 10.064 122.365 12.368C121.981 14.672 122.141 17.456 124.669 19.824C126.493 21.552 129.021 22.448 131.549 21.904C133.213 21.552 134.173 20.912 135.389 19.984V24.688C131.485 26.544 127.005 26.864 123.005 24.304C118.109 21.168 117.405 17.04 117.469 13.36C117.533 9.936 119.325 5.744 123.549 3.152C127.293 0.879999 131.613 1.072 135.389 2.672ZM137.949 1.648H142.749V11.504H152.605V1.648H157.373V26H152.605V15.44H142.749V26H137.949V1.648Z" fill="#0066FF"/>
</svg>
